<svg xmlns="http://www.w3.org/2000/svg" viewBox="0 0 16 16" id="Wet-Fill--Streamline-Mingcute-Fill" height="16" width="16">
  <desc>
    Wet Fill Streamline Icon: https://streamlinehq.com
  </desc>
  <g fill="none" fill-rule="evenodd">
    <path d="M16 0v16H0V0h16ZM8.395999999999999 15.505333333333333l-0.008 0.0013333333333333333 -0.047333333333333324 0.023333333333333334 -0.013333333333333332 0.0026666666666666666 -0.009333333333333332 -0.0026666666666666666 -0.047333333333333324 -0.023999999999999997c-0.006666666666666666 -0.002 -0.012666666666666666 0 -0.016 0.004l-0.0026666666666666666 0.006666666666666666 -0.011333333333333334 0.2853333333333333 0.003333333333333333 0.013333333333333332 0.006666666666666666 0.008666666666666666 0.06933333333333333 0.049333333333333326 0.009999999999999998 0.0026666666666666666 0.008 -0.0026666666666666666 0.06933333333333333 -0.049333333333333326 0.008 -0.010666666666666666 0.0026666666666666666 -0.011333333333333334 -0.011333333333333334 -0.2846666666666666c-0.0013333333333333333 -0.006666666666666666 -0.005999999999999999 -0.011333333333333334 -0.010666666666666666 -0.011999999999999999Zm0.176 -0.07533333333333334 -0.009333333333333332 0.0013333333333333333 -0.12266666666666666 0.062 -0.006666666666666666 0.006666666666666666 -0.002 0.007333333333333332 0.011999999999999999 0.2866666666666666 0.003333333333333333 0.008 0.005333333333333333 0.005333333333333333 0.134 0.06133333333333333c0.008 0.0026666666666666666 0.015333333333333332 0 0.019333333333333334 -0.005333333333333333l0.0026666666666666666 -0.009333333333333332 -0.02266666666666667 -0.4093333333333333c-0.002 -0.008 -0.006666666666666666 -0.013333333333333332 -0.013333333333333332 -0.014666666666666665Zm-0.4766666666666666 0.0013333333333333333a0.015333333333333332 0.015333333333333332 0 0 0 -0.018 0.004l-0.004 0.009333333333333332 -0.02266666666666667 0.4093333333333333c0 0.008 0.004666666666666666 0.013333333333333332 0.011333333333333334 0.016l0.009999999999999998 -0.0013333333333333333 0.134 -0.062 0.006666666666666666 -0.005333333333333333 0.002 -0.007333333333333332 0.011999999999999999 -0.2866666666666666 -0.002 -0.008 -0.006666666666666666 -0.006666666666666666 -0.12266666666666666 -0.06133333333333333Z" stroke-width="0.6667"></path>
    <path fill="#000000" d="M11.130666666666666 1.5853333333333333a0.7886666666666666 0.7886666666666666 0 0 1 1.072 0c0.18666666666666668 0.172 0.62 0.5946666666666667 1.0113333333333332 1.1493333333333333C13.593333333333334 3.2733333333333334 14 4.028 14 4.851999999999999 14 6.168 13.008 7.333333333333333 11.666666666666666 7.333333333333333 10.326 7.333333333333333 9.333333333333332 6.168 9.333333333333332 4.851999999999999c0 -0.8233333333333334 0.4066666666666666 -1.5786666666666664 0.7866666666666666 -2.1173333333333333a7.561333333333334 7.561333333333334 0 0 1 1.0106666666666666 -1.1493333333333333ZM3.1386666666666665 3.5753333333333335a0.7866666666666666 0.7866666666666666 0 0 1 1.056 0c0.1373333333333333 0.124 0.4053333333333333 0.38199999999999995 0.6439999999999999 0.7153333333333333C5.066666666666666 4.608666666666666 5.333333333333333 5.084666666666666 5.333333333333333 5.629333333333333 5.333333333333333 6.547333333333333 4.609999999999999 7.333333333333333 3.6666666666666665 7.333333333333333S2 6.546666666666667 2 5.629333333333333c0 -0.5446666666666666 0.26666666666666666 -1.0206666666666666 0.49466666666666664 -1.3386666666666667 0.23866666666666664 -0.3333333333333333 0.5066666666666666 -0.5913333333333333 0.6439999999999999 -0.7153333333333333Zm3.6686666666666667 2.6653333333333333a0.7893333333333332 0.7893333333333332 0 0 1 1.052 0c0.24266666666666664 0.216 0.9266666666666665 0.852 1.5546666666666664 1.7066666666666666 0.6153333333333333 0.836 1.2526666666666666 1.9819999999999998 1.2526666666666666 3.2006666666666668C10.666666666666666 13.047999999999998 9.216 14.666666666666666 7.333333333333333 14.666666666666666s-3.333333333333333 -1.6179999999999999 -3.333333333333333 -3.5186666666666664c0 -1.2186666666666666 0.6373333333333333 -2.3646666666666665 1.2526666666666666 -3.2006666666666668a11.604666666666667 11.604666666666667 0 0 1 1.5546666666666664 -1.7066666666666666Z" stroke-width="0.6667"></path>
  </g>
</svg>